<svg viewBox="0 0 24 24" fill="#4d88ff" xmlns="http://www.w3.org/2000/svg">
<path d="M12 2a10 10 0 1 0 0 20 10 10 0 0 0 0-20zm0 18a8 8 0 1 1 0-16 8 8 0 0 1 0 16zm-.5-5h1v1h-1v-1zm1.07-7.75c-.9 0-1.57.37-2.07 1.1-.4.56-.63 1.25-.63 2.03h2c0-.58.18-1.03.53-1.34.36-.31.83-.46 1.37-.46.54 0 .98.18 1.31.53.34.35.51.86.51 1.53 0 .45-.1.83-.31 1.15-.21.32-.61.69-1.2 1.1l-.18.14c-.7.55-1.07.97-1.07 1.27v.36h2v-.36c0-.36.43-.77 1.3-1.21.87-.44 1.36-.94 1.36-1.59 0-.67-.22-1.22-.66-1.64-.44-.42-1.04-.64-1.79-.64z"/>
</svg>
